<?xml version="1.0" encoding="UTF-8" standalone="no"?>
<!DOCTYPE svg PUBLIC "-//W3C//DTD SVG 1.1//EN" "http://www.w3.org/Graphics/SVG/1.1/DTD/svg11.dtd">
<svg width="100%" height="100%" viewBox="0 0 392 97" version="1.1" xmlns="http://www.w3.org/2000/svg" xmlns:xlink="http://www.w3.org/1999/xlink" xml:space="preserve" xmlns:serif="http://www.serif.com/" style="fill-rule:evenodd;clip-rule:evenodd;stroke-linejoin:round;stroke-miterlimit:2;">
    <g id="Artboard1" transform="matrix(1,0,0,1,-205.921,-191.46)">
        <rect x="205.921" y="191.46" width="391.656" height="96.96" style="fill:none;"/>
        <clipPath id="_clip1">
            <rect x="205.921" y="191.46" width="391.656" height="96.96"/>
        </clipPath>
        <g clip-path="url(#_clip1)">
            <g transform="matrix(1,0,0,1,0.92069,0.46)">
                <path d="M597.577,208.356L562.921,288.42L539.593,288.42L553.225,259.812L530.665,208.356L554.377,208.356L564.553,235.812L574.057,208.356L597.577,208.356ZM342.883,262.638L290.606,262.638C282.934,262.638 276.706,256.409 276.706,248.737L276.706,220.935C276.706,213.263 282.934,207.034 290.606,207.034L365.66,207.034C373.332,207.034 379.561,213.263 379.561,220.935L379.561,248.737C379.561,255.908 374.119,261.818 367.142,262.559L354.646,287.853C354.646,287.853 356.514,275.51 353.469,262.921C352.063,263.088 350.616,263.172 349.129,263.172C346.96,263.172 344.878,262.994 342.883,262.638ZM468.265,235.428C468.265,229.732 469.241,224.788 471.193,220.596C473.145,216.404 475.817,213.204 479.209,210.996C482.601,208.788 486.409,207.684 490.633,207.684C494.153,207.684 497.177,208.404 499.705,209.844C502.233,211.284 504.169,213.252 505.513,215.748L505.513,191.46L526.825,191.46L526.825,262.5L505.513,262.5L505.513,255.108C504.169,257.604 502.233,259.572 499.705,261.012C497.177,262.452 494.153,263.172 490.633,263.172C486.409,263.172 482.601,262.068 479.209,259.86C475.817,257.652 473.145,254.452 471.193,250.26C469.241,246.068 468.265,241.124 468.265,235.428ZM268.801,194.532L268.801,262.5L247.489,262.5L247.489,236.004L227.233,236.004L227.233,262.5L205.921,262.5L205.921,194.532L227.233,194.532L227.233,219.012L247.489,219.012L247.489,194.532L268.801,194.532ZM466.633,208.356L453.769,262.5L429.769,262.5L423.241,231.972L416.329,262.5L392.329,262.5L379.561,208.356L400.681,208.356L405.193,241.284L412.201,208.356L434.953,208.356L442.345,241.668L446.953,208.356L466.633,208.356Z" style="fill:rgb(124,0,255);fill-rule:nonzero;"/>
                <g transform="matrix(0.796837,0,0,1,51.6979,8.01274)">
                    <text x="306.667px" y="231.415px" style="font-family:'Poppins-Black', 'Poppins';font-weight:900;font-size:64px;fill:white;">. . .              .</text>
                </g>
            </g>
        </g>
    </g>
</svg>
