<?xml version="1.0" encoding="UTF-8" standalone="no"?>
<!DOCTYPE svg PUBLIC "-//W3C//DTD SVG 1.1//EN" "http://www.w3.org/Graphics/SVG/1.1/DTD/svg11.dtd">
<svg width="100%" height="100%" viewBox="0 0 105 80" version="1.1" xmlns="http://www.w3.org/2000/svg" xmlns:xlink="http://www.w3.org/1999/xlink" xml:space="preserve" xmlns:serif="http://www.serif.com/" style="fill-rule:evenodd;clip-rule:evenodd;stroke-linejoin:round;stroke-miterlimit:2;">
    <g transform="matrix(1,0,0,1,-66,-181)">
        <g id="Artboard2" transform="matrix(1,0,0,1,-0.279213,-0.355994)">
            <rect x="66.279" y="181.356" width="104.487" height="79.497" style="fill:none;"/>
            <clipPath id="_clip1">
                <rect x="66.279" y="181.356" width="104.487" height="79.497"/>
            </clipPath>
            <g clip-path="url(#_clip1)">
                <g transform="matrix(1,0,0,1,-208.515,-26.644)">
                    <path d="M342.883,262.638L290.606,262.638C282.934,262.638 276.706,256.409 276.706,248.737L276.706,220.935C276.706,213.263 282.934,207.034 290.606,207.034L365.66,207.034C373.332,207.034 379.561,213.263 379.561,220.935L379.561,248.737C379.561,255.908 374.119,261.818 367.142,262.559L354.646,287.853C354.646,287.853 356.514,275.51 353.469,262.921C352.063,263.088 350.616,263.172 349.129,263.172C346.96,263.172 344.878,262.994 342.883,262.638Z" style="fill:rgb(124,0,255);"/>
                    <path d="M466.633,208.356L453.769,262.5L429.769,262.5L423.241,231.972L416.329,262.5L392.329,262.5L379.561,208.356L400.681,208.356L405.193,241.284L412.201,208.356L434.953,208.356L442.345,241.668L446.953,208.356L466.633,208.356Z" style="fill:rgb(124,0,255);"/>
                    <g transform="matrix(0.796837,0,0,1,51.6979,8.01274)">
                        <text x="306.667px" y="231.415px" style="font-family:'Poppins-Black', 'Poppins';font-weight:900;font-size:64px;fill:white;">. . .              .</text>
                    </g>
                </g>
            </g>
        </g>
    </g>
</svg>
